# Blender 4.2.0
# www.blender.org
o Plane
v -1.000000 -1.000000 0.000000
v 2.000000 -1.000000 0.000000
v -1.000000 1.000000 -0.000000
v 2.000000 1.000000 -0.000000
v 0.000000 -3.000000 0.000000
v 1.000000 2.000000 -0.000000
v -3.000000 0.000000 0.000000
v -3.000000 1.000000 -0.000000
vn -0.0000 -0.0000 1.0000
vt 0.571429 -0.000000
vt 0.857143 0.571429
vt -0.000000 -0.000000
vt 0.142857 0.428571
vt 0.428571 0.714286
vt 0.000000 0.857143
vt 0.857143 0.285714
vt 0.142857 1.000000
s 0
f 2/1/1 6/2/1 5/3/1
f 1/4/1 6/2/1 3/5/1
f 3/5/1 7/6/1 1/4/1
f 2/1/1 4/7/1 6/2/1
f 1/4/1 5/3/1 6/2/1
f 3/5/1 8/8/1 7/6/1
